<svg version="1.2" xmlns="http://www.w3.org/2000/svg" viewBox="0 0 600 100" width="600" height="100">
	<style>
		.s0 { fill: #000000 } 
	</style>
	<path id="HOOKE" class="s0" aria-label="HOOKE"  d="m70.8 69h-18.9v-56h18.9zm-36.4 0h-18.8v-56h18.8zm18.8-20.6h-20v-15.6h20zm56.8 22q-6.9 0-12.7-2.2-5.8-2.2-10-6.1-4.3-4-6.7-9.3-2.3-5.4-2.3-11.8 0-6.3 2.3-11.6 2.4-5.3 6.6-9.3 4.3-4 10.1-6.1 5.8-2.2 12.6-2.2 6.9 0 12.7 2.2 5.7 2.1 9.9 6.1 4.3 4 6.6 9.3 2.4 5.3 2.4 11.6 0 6.4-2.4 11.8-2.3 5.3-6.5 9.3-4.3 3.9-10 6.1-5.8 2.2-12.6 2.2zm-0.1-15.3q2.7 0 4.9-1 2.3-0.9 4-2.7 1.8-1.8 2.7-4.4 1-2.6 1-5.9 0-3.3-1-5.9-0.9-2.6-2.7-4.4-1.7-1.8-4-2.8-2.3-0.9-4.9-0.9-2.6 0-4.9 0.9-2.3 1-4 2.8-1.7 1.8-2.7 4.4-0.9 2.6-0.9 5.9 0 3.3 0.9 5.9 1 2.6 2.7 4.4 1.7 1.8 4 2.7 2.3 1 4.9 1zm68.1 15.3q-6.9 0-12.7-2.2-5.8-2.2-10-6.1-4.3-4-6.7-9.3-2.3-5.4-2.3-11.8 0-6.3 2.3-11.6 2.4-5.3 6.6-9.3 4.3-4 10.1-6.1 5.8-2.2 12.6-2.2 6.9 0 12.7 2.2 5.7 2.1 9.9 6.1 4.3 4 6.6 9.3 2.4 5.3 2.4 11.6 0 6.4-2.4 11.8-2.3 5.3-6.5 9.3-4.3 3.9-10 6.1-5.8 2.2-12.6 2.2zm-0.1-15.3q2.7 0 4.9-1 2.3-0.9 4-2.7 1.8-1.8 2.7-4.4 1-2.6 1-5.9 0-3.3-1-5.9-0.9-2.6-2.7-4.4-1.7-1.8-4-2.8-2.3-0.9-4.9-0.9-2.6 0-4.9 0.9-2.3 1-4 2.8-1.7 1.8-2.7 4.4-0.9 2.6-0.9 5.9 0 3.3 0.9 5.9 1 2.6 2.7 4.4 1.7 1.8 4 2.7 2.3 1 4.9 1zm61-5.2l-6.5 7.2-1-20.7 21.1-23.3h20.6l-23.7 26.1zm-4.8 19.2h-18.6v-56h18.6zm40.1 0h-21.9l-16.4-21.8 12.2-13zm49.9 0h-46.5v-56h45.5v14.3h-27v27.5h28zm-4.3-21.6h-25v-13.6h25z"/>
	<path id="D" class="s0" aria-label="D"  d="m354.2 74l-27.1-5.3 10.8-55 27.1 5.4q9.2 1.8 15.5 6.5 6.4 4.7 9.1 11.6 2.7 6.9 1 15.4-1.7 8.5-6.8 13.9-5.1 5.4-12.8 7.4-7.6 1.9-16.8 0.1zm-0.6-42.2l-5.1 26.1 7.8 1.5q3.9 0.8 7.1-0.1 3.2-0.9 5.5-3.5 2.2-2.7 3-6.8 0.9-4.3-0.2-7.5-1.1-3.2-3.8-5.3-2.6-2.1-6.5-2.9z"/>
	<path id="Shape 1" fill-rule="evenodd" class="s0" d="m358 66.97v18.64h-343v-18.64z"/>
	<path id="Shape 2" class="s0" d=""/>
</svg>